<svg width="101" height="36" viewBox="0 0 101 36" fill="none" xmlns="http://www.w3.org/2000/svg">
<g filter="url(#filter0_d_259_30)">
<path d="M97.7808 0C98.133 0 98.4175 0.100741 98.6342 0.302223C98.8781 0.503705 99 0.768149 99 1.09556C99 1.42296 98.8781 1.68741 98.6342 1.88889C98.4175 2.06519 98.133 2.15333 97.7808 2.15333H12.1515V25.3111C12.1515 25.6385 12.0296 25.9156 11.7857 26.1422C11.5419 26.3437 11.2438 26.4444 10.8916 26.4444C10.5123 26.4444 10.2007 26.3437 9.9569 26.1422C9.74015 25.9156 9.63177 25.6385 9.63177 25.3111V2.15333H1.21921C0.866995 2.15333 0.568966 2.05259 0.325123 1.85111C0.108374 1.64963 0 1.38519 0 1.05778C0 0.755556 0.108374 0.503705 0.325123 0.302223C0.568966 0.100741 0.866995 0 1.21921 0H97.7808Z" fill="white"/>
<path d="M38.0696 6.8C38.4218 6.8 38.7063 6.91333 38.923 7.14C39.1669 7.34148 39.2888 7.60593 39.2888 7.93333V24.5933C39.2888 26.583 38.8688 28.283 38.0289 29.6933C37.189 31.1037 36.024 32.1741 34.5339 32.9044C33.0437 33.6348 31.3639 34 29.4944 34C28.3565 34 27.2863 33.8867 26.2839 33.66C25.3085 33.4333 24.4957 33.1311 23.8454 32.7533C23.2765 32.4259 22.992 32.0607 22.992 31.6578C22.992 31.6074 23.0191 31.4815 23.0733 31.28C23.1545 31.0281 23.29 30.8393 23.4797 30.7133C23.6693 30.5874 23.8725 30.5244 24.0893 30.5244C24.2518 30.5244 24.4144 30.5622 24.577 30.6378C26.3109 31.5193 27.9637 31.96 29.5351 31.96C31.7839 31.96 33.5585 31.3052 34.859 29.9956C36.1866 28.6859 36.8504 26.8978 36.8504 24.6311V23.3089C36.173 24.3667 35.1976 25.223 33.9242 25.8778C32.6508 26.5074 31.2691 26.8222 29.7789 26.8222C27.4218 26.8222 25.6336 26.1674 24.4144 24.8578C23.1952 23.5481 22.5856 21.7726 22.5856 19.5311V7.93333C22.5856 7.60593 22.694 7.34148 22.9107 7.14C23.1545 6.91333 23.4526 6.8 23.8048 6.8C24.157 6.8 24.4415 6.91333 24.6582 7.14C24.9021 7.34148 25.024 7.60593 25.024 7.93333V19.1911C25.024 21.0044 25.444 22.377 26.2839 23.3089C27.1509 24.2407 28.492 24.7067 30.3073 24.7067C31.4181 24.7067 32.4747 24.4548 33.4772 23.9511C34.5068 23.4222 35.3196 22.7422 35.9156 21.9111C36.5388 21.0548 36.8504 20.1481 36.8504 19.1911V7.93333C36.8504 7.60593 36.9587 7.34148 37.1755 7.14C37.4193 6.91333 37.7174 6.8 38.0696 6.8Z" fill="white"/>
<path d="M48.3662 25.3111C48.3662 25.6385 48.2443 25.9156 48.0004 26.1422C47.7837 26.3437 47.4992 26.4444 47.147 26.4444C46.7948 26.4444 46.4967 26.3437 46.2529 26.1422C46.0361 25.9156 45.9278 25.6385 45.9278 25.3111V5.28889C45.9278 4.96148 46.0361 4.69704 46.2529 4.49556C46.4967 4.26889 46.7948 4.15556 47.147 4.15556C47.4992 4.15556 47.7837 4.26889 48.0004 4.49556C48.2443 4.69704 48.3662 4.96148 48.3662 5.28889V25.3111Z" fill="white"/>
<path d="M73.8357 16.7733C73.8357 18.6622 73.3886 20.3748 72.4945 21.9111C71.6004 23.4474 70.3677 24.6563 68.7962 25.5378C67.2248 26.3941 65.4773 26.8222 63.5536 26.8222C61.63 26.8222 59.8825 26.3941 58.311 25.5378C56.7396 24.6563 55.5068 23.4474 54.6127 21.9111C53.7187 20.3748 53.2716 18.6622 53.2716 16.7733C53.2716 14.8844 53.7187 13.1719 54.6127 11.6356C55.5068 10.0993 56.7396 8.89037 58.311 8.00889C59.8825 7.12741 61.63 6.68667 63.5536 6.68667C65.4773 6.68667 67.2248 7.12741 68.7962 8.00889C70.3677 8.89037 71.6004 10.0993 72.4945 11.6356C73.3886 13.1719 73.8357 14.8844 73.8357 16.7733ZM71.3972 16.7733C71.3972 15.2622 71.0586 13.9022 70.3812 12.6933C69.7039 11.4844 68.7556 10.54 67.5364 9.86C66.3443 9.15482 65.0167 8.80222 63.5536 8.80222C62.0906 8.80222 60.763 9.15482 59.5709 9.86C58.3788 10.54 57.4305 11.4844 56.726 12.6933C56.0487 13.9022 55.71 15.2622 55.71 16.7733C55.71 18.2593 56.0487 19.6067 56.726 20.8156C57.4305 22.0244 58.3788 22.9815 59.5709 23.6867C60.763 24.3667 62.0906 24.7067 63.5536 24.7067C65.0167 24.7067 66.3443 24.3667 67.5364 23.6867C68.7556 23.0067 69.7039 22.0622 70.3812 20.8533C71.0586 19.6444 71.3972 18.2844 71.3972 16.7733Z" fill="white"/>
<path d="M96.38 7.14C96.7322 7.14 97.0167 7.25333 97.2334 7.48C97.4772 7.68148 97.5992 7.95852 97.5992 8.31111V24.6689C97.5992 26.6333 97.1521 28.3081 96.258 29.6933C95.391 31.1037 94.1854 32.1741 92.641 32.9044C91.1238 33.6348 89.3763 34 87.3984 34C86.4502 34 85.4477 33.8867 84.391 33.66C83.3615 33.4333 82.4674 33.1437 81.7088 32.7911C80.9772 32.4385 80.5573 32.0733 80.4489 31.6956C80.2593 31.5193 80.1644 31.3178 80.1644 31.0911C80.1644 30.8393 80.2864 30.6378 80.5302 30.4867C80.6386 30.4111 80.774 30.3733 80.9366 30.3733C81.0992 30.3733 81.4107 30.4615 81.8713 30.6378L82.7248 30.9778C84.4046 31.5822 85.976 31.8844 87.4391 31.8844C89.8504 31.8844 91.7334 31.2422 93.0881 29.9578C94.4699 28.6985 95.1607 26.9859 95.1607 24.82V22.4778C94.4834 23.8378 93.4132 24.9081 91.9502 25.6889C90.4871 26.4444 88.9563 26.8222 87.3578 26.8222C85.4883 26.8222 83.795 26.3941 82.2777 25.5378C80.7876 24.6563 79.609 23.4474 78.742 21.9111C77.875 20.3748 77.4415 18.6496 77.4415 16.7356C77.4415 14.8467 77.875 13.1341 78.742 11.5978C79.609 10.0615 80.7876 8.86518 82.2777 8.00889C83.795 7.12741 85.4748 6.68667 87.3172 6.68667C89.0241 6.68667 90.5819 7.08963 91.9908 7.89556C93.4268 8.6763 94.4834 9.62074 95.1607 10.7289V8.31111C95.1607 7.9837 95.2691 7.70667 95.4859 7.48C95.7297 7.25333 96.0277 7.14 96.38 7.14ZM87.561 24.7067C89.0511 24.7067 90.3787 24.3793 91.5437 23.7244C92.7359 23.0444 93.6571 22.1 94.3073 20.8911C94.9846 19.657 95.3233 18.2718 95.3233 16.7356C95.3233 15.1993 94.9846 13.8267 94.3073 12.6178C93.6571 11.4089 92.7359 10.477 91.5437 9.82222C90.3787 9.14222 89.0511 8.80222 87.561 8.80222C86.0979 8.80222 84.7704 9.15482 83.5782 9.86C82.4132 10.54 81.492 11.4844 80.8147 12.6933C80.1644 13.9022 79.8393 15.2496 79.8393 16.7356C79.8393 18.2467 80.1644 19.6067 80.8147 20.8156C81.492 22.0244 82.4132 22.9815 83.5782 23.6867C84.7704 24.3667 86.0979 24.7067 87.561 24.7067Z" fill="white"/>
</g>
<defs>
<filter id="filter0_d_259_30" x="0" y="0" width="101" height="36" filterUnits="userSpaceOnUse" color-interpolation-filters="sRGB">
<feFlood flood-opacity="0" result="BackgroundImageFix"/>
<feColorMatrix in="SourceAlpha" type="matrix" values="0 0 0 0 0 0 0 0 0 0 0 0 0 0 0 0 0 0 127 0" result="hardAlpha"/>
<feOffset dx="1" dy="1"/>
<feGaussianBlur stdDeviation="0.5"/>
<feComposite in2="hardAlpha" operator="out"/>
<feColorMatrix type="matrix" values="0 0 0 0 0 0 0 0 0 0 0 0 0 0 0 0 0 0 0.25 0"/>
<feBlend mode="normal" in2="BackgroundImageFix" result="effect1_dropShadow_259_30"/>
<feBlend mode="normal" in="SourceGraphic" in2="effect1_dropShadow_259_30" result="shape"/>
</filter>
</defs>
</svg>
