<svg width="200" height="201" viewBox="0 0 200 201" fill="none" xmlns="http://www.w3.org/2000/svg">
<ellipse cx="100" cy="100.5" rx="100" ry="100.5" fill="url(#paint0_linear_102_5)" fill-opacity="0.8"/>
<path d="M100 74.37C97.253 74.37 94.5678 75.1838 92.2837 76.7086C89.9997 78.2334 88.2196 80.4007 87.1683 82.9363C86.1171 85.472 85.8421 88.2621 86.378 90.9539C86.9139 93.6457 88.2367 96.1183 90.1791 98.059C92.1215 99.9997 94.5962 101.321 97.2904 101.857C99.9846 102.392 102.777 102.117 105.315 101.067C107.853 100.017 110.022 98.2382 111.548 95.9562C113.074 93.6742 113.889 90.9913 113.889 88.2467C113.889 84.5664 112.426 81.0368 109.821 78.4344C107.216 75.832 103.684 74.37 100 74.37ZM100 96.5727C98.3518 96.5727 96.7407 96.0844 95.3702 95.1695C93.9998 94.2547 92.9317 92.9543 92.301 91.4329C91.6703 89.9116 91.5052 88.2375 91.8268 86.6224C92.1483 85.0073 92.942 83.5237 94.1074 82.3593C95.2729 81.1949 96.7577 80.4019 98.3742 80.0807C99.9908 79.7594 101.666 79.9243 103.189 80.5545C104.712 81.1846 106.013 82.2518 106.929 83.621C107.845 84.9902 108.333 86.6 108.333 88.2467C108.333 90.4549 107.455 92.5727 105.893 94.1341C104.33 95.6955 102.21 96.5727 100 96.5727ZM125 127.101V124.326C125 119.174 122.951 114.232 119.305 110.589C115.658 106.946 110.713 104.899 105.556 104.899H94.4444C89.2875 104.899 84.3417 106.946 80.6951 110.589C77.0486 114.232 75 119.174 75 124.326V127.101H80.5556V124.326C80.5556 120.646 82.0188 117.116 84.6235 114.514C87.2282 111.911 90.7609 110.449 94.4444 110.449H105.556C109.239 110.449 112.772 111.911 115.376 114.514C117.981 117.116 119.444 120.646 119.444 124.326V127.101H125Z" fill="white"/>
<defs>
<linearGradient id="paint0_linear_102_5" x1="0" y1="0" x2="200.998" y2="199.998" gradientUnits="userSpaceOnUse">
<stop stop-color="#6749E2"/>
<stop offset="1" stop-color="#4A34A1"/>
</linearGradient>
</defs>
</svg>
