<svg width="174" height="140" viewBox="0 0 174 140" fill="none" xmlns="http://www.w3.org/2000/svg">
<path d="M12.9851 12.069H144C160.569 12.069 174 25.5004 174 42.069V140H42.9851C26.4165 140 12.9851 126.568 12.9851 110V12.069Z" fill="url(#paint0_linear_101_19)" fill-opacity="0.6"/>
<g filter="url(#filter0_d_101_19)">
<path d="M0 0H131.015C147.584 0 161.015 13.4315 161.015 30V127.931H30C13.4314 127.931 0 114.499 0 97.9309V0Z" fill="url(#paint1_linear_101_19)"/>
</g>
<g filter="url(#filter1_d_101_19)">
<path d="M144.913 41.0344C145.364 41.0344 145.727 41.1632 146.004 41.4206C146.316 41.6781 146.472 42.016 146.472 42.4344C146.472 42.8528 146.316 43.1907 146.004 43.4482C145.727 43.6735 145.364 43.7861 144.913 43.7861H35.4752V73.3792C35.4752 73.7976 35.3194 74.1516 35.0078 74.4413C34.6961 74.6988 34.3152 74.8275 33.8651 74.8275C33.3803 74.8275 32.9821 74.6988 32.6704 74.4413C32.3934 74.1516 32.2549 73.7976 32.2549 73.3792V43.7861H21.5033C21.0531 43.7861 20.6722 43.6574 20.3606 43.3999C20.0836 43.1425 19.9451 42.8045 19.9451 42.3861C19.9451 41.9999 20.0836 41.6781 20.3606 41.4206C20.6722 41.1632 21.0531 41.0344 21.5033 41.0344H144.913Z" fill="white"/>
<path d="M68.5998 49.7241C69.0499 49.7241 69.4135 49.8689 69.6905 50.1586C70.0022 50.416 70.158 50.754 70.158 51.1723V72.462C70.158 75.0045 69.6213 77.1769 68.5478 78.9792C67.4744 80.7815 65.9854 82.1493 64.081 83.0827C62.1765 84.016 60.0296 84.4827 57.6404 84.4827C56.186 84.4827 54.8183 84.3378 53.5371 84.0482C52.2905 83.7585 51.2517 83.3723 50.4207 82.8896C49.6935 82.4712 49.3299 82.0045 49.3299 81.4896C49.3299 81.4252 49.3645 81.2643 49.4338 81.0068C49.5377 80.685 49.7108 80.4436 49.9532 80.2827C50.1956 80.1217 50.4553 80.0413 50.7323 80.0413C50.9401 80.0413 51.1478 80.0896 51.3556 80.1861C53.5717 81.3126 55.6839 81.8758 57.6923 81.8758C60.5663 81.8758 62.8344 81.039 64.4965 79.3654C66.1932 77.6919 67.0416 75.4068 67.0416 72.5103V70.8206C66.1759 72.1723 64.9293 73.2666 63.3018 74.1034C61.6744 74.908 59.9084 75.3103 58.0039 75.3103C54.9914 75.3103 52.706 74.4735 51.1478 72.7999C49.5896 71.1264 48.8105 68.8574 48.8105 65.993V51.1723C48.8105 50.754 48.949 50.416 49.226 50.1586C49.5377 49.8689 49.9186 49.7241 50.3687 49.7241C50.8189 49.7241 51.1824 49.8689 51.4595 50.1586C51.7711 50.416 51.9269 50.754 51.9269 51.1723V65.5585C51.9269 67.8758 52.4636 69.6298 53.5371 70.8206C54.6451 72.0114 56.3592 72.6068 58.6792 72.6068C60.0989 72.6068 61.4493 72.285 62.7305 71.6413C64.0463 70.9654 65.0851 70.0965 65.8469 69.0344C66.6433 67.9401 67.0416 66.7815 67.0416 65.5585V51.1723C67.0416 50.754 67.1801 50.416 67.4571 50.1586C67.7687 49.8689 68.1496 49.7241 68.5998 49.7241Z" fill="white"/>
<path d="M81.7593 73.3792C81.7593 73.7976 81.6035 74.1516 81.2919 74.4413C81.0149 74.6988 80.6513 74.8275 80.2011 74.8275C79.751 74.8275 79.3701 74.6988 79.0584 74.4413C78.7814 74.1516 78.6429 73.7976 78.6429 73.3792V47.793C78.6429 47.3746 78.7814 47.0367 79.0584 46.7792C79.3701 46.4896 79.751 46.3448 80.2011 46.3448C80.6513 46.3448 81.0149 46.4896 81.2919 46.7792C81.6035 47.0367 81.7593 47.3746 81.7593 47.793V73.3792Z" fill="white"/>
<path d="M114.311 62.4689C114.311 64.8827 113.739 67.0712 112.596 69.0344C111.454 70.9976 109.878 72.5424 107.87 73.6689C105.862 74.7631 103.628 75.3103 101.17 75.3103C98.7111 75.3103 96.4777 74.7631 94.4693 73.6689C92.4609 72.5424 90.8854 70.9976 89.7427 69.0344C88.6 67.0712 88.0287 64.8827 88.0287 62.4689C88.0287 60.0551 88.6 57.8666 89.7427 55.9034C90.8854 53.9402 92.4609 52.3953 94.4693 51.2689C96.4777 50.1425 98.7111 49.5792 101.17 49.5792C103.628 49.5792 105.862 50.1425 107.87 51.2689C109.878 52.3953 111.454 53.9402 112.596 55.9034C113.739 57.8666 114.311 60.0551 114.311 62.4689ZM111.194 62.4689C111.194 60.5379 110.761 58.7999 109.896 57.2551C109.03 55.7103 107.818 54.5034 106.26 53.6344C104.736 52.7333 103.039 52.2827 101.17 52.2827C99.2997 52.2827 97.603 52.7333 96.0794 53.6344C94.5559 54.5034 93.3439 55.7103 92.4436 57.2551C91.5779 58.7999 91.1451 60.5379 91.1451 62.4689C91.1451 64.3677 91.5779 66.0896 92.4436 67.6344C93.3439 69.1792 94.5559 70.4022 96.0794 71.3034C97.603 72.1723 99.2997 72.6068 101.17 72.6068C103.039 72.6068 104.736 72.1723 106.26 71.3034C107.818 70.4344 109.03 69.2275 109.896 67.6827C110.761 66.1379 111.194 64.3999 111.194 62.4689Z" fill="white"/>
<path d="M143.123 50.1586C143.573 50.1586 143.937 50.3034 144.214 50.593C144.526 50.8505 144.681 51.2045 144.681 51.6551V72.5585C144.681 75.0689 144.11 77.2091 142.967 78.9792C141.859 80.7815 140.318 82.1493 138.345 83.0827C136.406 84.016 134.172 84.4827 131.644 84.4827C130.432 84.4827 129.151 84.3378 127.801 84.0482C126.485 83.7585 125.342 83.3884 124.373 82.9378C123.438 82.4873 122.901 82.0206 122.763 81.5378C122.52 81.3126 122.399 81.0551 122.399 80.7654C122.399 80.4436 122.555 80.1861 122.866 79.993C123.005 79.8965 123.178 79.8482 123.386 79.8482C123.594 79.8482 123.992 79.9608 124.58 80.1861L125.671 80.6206C127.818 81.393 129.826 81.7792 131.696 81.7792C134.778 81.7792 137.185 80.9585 138.916 79.3172C140.682 77.708 141.565 75.5195 141.565 72.7516V69.7585C140.699 71.4965 139.332 72.8643 137.462 73.862C135.592 74.8275 133.635 75.3103 131.592 75.3103C129.203 75.3103 127.039 74.7631 125.1 73.6689C123.195 72.5424 121.689 70.9976 120.581 69.0344C119.473 67.0712 118.919 64.8666 118.919 62.4206C118.919 60.0068 119.473 57.8183 120.581 55.8551C121.689 53.8919 123.195 52.3632 125.1 51.2689C127.039 50.1425 129.186 49.5792 131.54 49.5792C133.722 49.5792 135.713 50.0942 137.514 51.1241C139.349 52.1218 140.699 53.3287 141.565 54.7448V51.6551C141.565 51.2367 141.703 50.8827 141.98 50.593C142.292 50.3034 142.673 50.1586 143.123 50.1586ZM131.852 72.6068C133.757 72.6068 135.453 72.1884 136.942 71.3516C138.466 70.4827 139.643 69.2758 140.474 67.731C141.34 66.1539 141.773 64.3838 141.773 62.4206C141.773 60.4574 141.34 58.7034 140.474 57.1586C139.643 55.6137 138.466 54.4229 136.942 53.5861C135.453 52.7172 133.757 52.2827 131.852 52.2827C129.982 52.2827 128.286 52.7333 126.762 53.6344C125.273 54.5034 124.096 55.7103 123.23 57.2551C122.399 58.7999 121.983 60.5218 121.983 62.4206C121.983 64.3516 122.399 66.0896 123.23 67.6344C124.096 69.1792 125.273 70.4022 126.762 71.3034C128.286 72.1723 129.982 72.6068 131.852 72.6068Z" fill="white"/>
</g>
<defs>
<filter id="filter0_d_101_19" x="0" y="0" width="169.015" height="135.931" filterUnits="userSpaceOnUse" color-interpolation-filters="sRGB">
<feFlood flood-opacity="0" result="BackgroundImageFix"/>
<feColorMatrix in="SourceAlpha" type="matrix" values="0 0 0 0 0 0 0 0 0 0 0 0 0 0 0 0 0 0 127 0" result="hardAlpha"/>
<feOffset dx="4" dy="4"/>
<feGaussianBlur stdDeviation="2"/>
<feComposite in2="hardAlpha" operator="out"/>
<feColorMatrix type="matrix" values="0 0 0 0 0 0 0 0 0 0 0 0 0 0 0 0 0 0 0.25 0"/>
<feBlend mode="normal" in2="BackgroundImageFix" result="effect1_dropShadow_101_19"/>
<feBlend mode="normal" in="SourceGraphic" in2="effect1_dropShadow_101_19" result="shape"/>
</filter>
<filter id="filter1_d_101_19" x="19.9451" y="41.0344" width="128.527" height="45.4482" filterUnits="userSpaceOnUse" color-interpolation-filters="sRGB">
<feFlood flood-opacity="0" result="BackgroundImageFix"/>
<feColorMatrix in="SourceAlpha" type="matrix" values="0 0 0 0 0 0 0 0 0 0 0 0 0 0 0 0 0 0 127 0" result="hardAlpha"/>
<feOffset dx="1" dy="1"/>
<feGaussianBlur stdDeviation="0.5"/>
<feComposite in2="hardAlpha" operator="out"/>
<feColorMatrix type="matrix" values="0 0 0 0 0 0 0 0 0 0 0 0 0 0 0 0 0 0 0.25 0"/>
<feBlend mode="normal" in2="BackgroundImageFix" result="effect1_dropShadow_101_19"/>
<feBlend mode="normal" in="SourceGraphic" in2="effect1_dropShadow_101_19" result="shape"/>
</filter>
<linearGradient id="paint0_linear_101_19" x1="12.9851" y1="12.069" x2="163.651" y2="154.563" gradientUnits="userSpaceOnUse">
<stop stop-color="#6749E2"/>
<stop offset="1" stop-color="#4A34A2"/>
</linearGradient>
<linearGradient id="paint1_linear_101_19" x1="0" y1="0" x2="150.666" y2="142.494" gradientUnits="userSpaceOnUse">
<stop stop-color="#E24964"/>
<stop offset="1" stop-color="#B03671"/>
</linearGradient>
</defs>
</svg>
